<?xml version="1.0" encoding="UTF-8" standalone="no"?>
<svg
   xmlns:dc="http://purl.org/dc/elements/1.1/"
   xmlns:cc="http://creativecommons.org/ns#"
   xmlns:rdf="http://www.w3.org/1999/02/22-rdf-syntax-ns#"
   xmlns:svg="http://www.w3.org/2000/svg"
   xmlns="http://www.w3.org/2000/svg"
   xmlns:sodipodi="http://sodipodi.sourceforge.net/DTD/sodipodi-0.dtd"
   xmlns:inkscape="http://www.inkscape.org/namespaces/inkscape"
   id="svg1"
   sodipodi:docname="primary_laptop.svg"
   viewBox="0 0 98.315964 90.790053"
   sodipodi:version="0.32"
   _SVGFile__filename="oldscale/devices/cdaudio_mount.svg"
   version="1.0"
   y="0"
   x="0"
   inkscape:version="0.48.5 r10040"
   width="100%"
   height="100%">
  <defs
     id="defs12" />
  <sodipodi:namedview
     id="base"
     bordercolor="#666666"
     inkscape:pageshadow="2"
     inkscape:window-y="31"
     pagecolor="#ffffff"
     inkscape:window-height="1027"
     inkscape:zoom="3.3066997"
     inkscape:window-x="0"
     borderopacity="1.0"
     inkscape:current-layer="svg1"
     inkscape:cx="64.445329"
     inkscape:cy="61.933564"
     inkscape:window-width="1920"
     inkscape:pageopacity="0.0"
     showgrid="false"
     inkscape:window-maximized="1"
     fit-margin-top="0"
     fit-margin-left="0"
     fit-margin-right="0"
     fit-margin-bottom="0" />
  <path
     inkscape:connector-curvature="0"
     d="m 49.534378,39.854293 c -1.0107,0.102437 -1.781,0.964372 -1.781,2.0066 v 30.976888 h 41.875 V 41.860893 c 0,-1.111656 -0.892,-2.0066 -2,-2.0066 h -37.875 c -0.069,0 -0.151,-0.0068 -0.219,0 z m -2.4373,33.046695 -3.7187,7.899985 h 50.875 l -3.719,-7.899985 h -43.437 z m -3.7187,7.93209 v 3.887788 c 0,1.111656 0.892,2.0066 2,2.0066 h 46.875 c 1.108,0 2,-0.894944 2,-2.0066 v -3.887788 h -50.875 z"
     style="color:#000000;fill:none;stroke:#ffffff;stroke-width:8.12517357;stroke-linecap:round;stroke-linejoin:round"
     id="path3099" />
  <path
     inkscape:connector-curvature="0"
     d="M 47.878378,72.84079 V 41.863903 c 0,-1.111255 0.892,-2.006199 2,-2.006199 h 37.875 c 1.108,0 2,0.894944 2,2.0066 v 30.976888"
     style="color:#000000;fill:#d9dddf;fill-rule:evenodd;stroke:#000000;stroke-width:3.12504363;stroke-linecap:round;stroke-linejoin:round"
     sodipodi:nodetypes="cccccc"
     id="rect2209" />
  <path
     inkscape:connector-curvature="0"
     d="m 47.211778,72.903998 h 43.459 l 3.708,7.900988 h -50.875 l 3.7084,-7.900988 z"
     style="color:#000000;fill:#babec3;fill-rule:evenodd;stroke:#000000;stroke-width:3.12504363;stroke-linecap:round;stroke-linejoin:round"
     sodipodi:nodetypes="ccccc"
     id="path4071" />
  <path
     inkscape:connector-curvature="0"
     d="m 52.753378,44.497565 h 32.125 v 23.702963 h -32.125 V 44.497565 z"
     style="color:#000000;fill:#000000;fill-rule:evenodd;stroke:#000000;stroke-width:1.87498605;stroke-linecap:round;stroke-linejoin:round"
     sodipodi:nodetypes="ccccc"
     id="path4946" />
  <path
     inkscape:connector-curvature="0"
     d="m 94.378378,80.838095 v 3.887787 c 0,1.111657 -0.892,2.0066 -2,2.0066 h -46.875 c -1.108,0 -2,-0.894943 -2,-2.0066 v -3.887787 h 50.875 z"
     style="color:#000000;fill:#d9dddf;fill-rule:evenodd;stroke:#000000;stroke-width:3.12504363;stroke-linecap:round;stroke-linejoin:round"
     sodipodi:nodetypes="ccccccc"
     id="rect3085" />
  <metadata
     id="metadata10">
    <rdf:RDF>
      <cc:Work>
        <dc:format>image/svg+xml</dc:format>
        <dc:type
           rdf:resource="http://purl.org/dc/dcmitype/StillImage" />
        <cc:license
           rdf:resource="http://creativecommons.org/licenses/publicdomain/" />
        <dc:publisher>
          <cc:Agent
             rdf:about="http://openclipart.org/">
            <dc:title>Openclipart</dc:title>
          </cc:Agent>
        </dc:publisher>
      </cc:Work>
      <cc:License
         rdf:about="http://creativecommons.org/licenses/publicdomain/">
        <cc:permits
           rdf:resource="http://creativecommons.org/ns#Reproduction" />
        <cc:permits
           rdf:resource="http://creativecommons.org/ns#Distribution" />
        <cc:permits
           rdf:resource="http://creativecommons.org/ns#DerivativeWorks" />
      </cc:License>
    </rdf:RDF>
  </metadata>
  <g
     transform="matrix(0.20294928,0,0,0.20294928,-54.386652,-59.750602)"
     inkscape:label="Layer 1"
     id="layer1">
    <path
       d="m 404.83,299.84 c -14.6,0 -27.26,7.87 -34.35,19.49 -6.57,-4.64 -14.54,-7.45 -23.19,-7.45 -22.28,0 -40.37,18.09 -40.37,40.37 0,1.63 0.3,3.2 0.49,4.78 -19.23,3.07 -34,19.59 -34,39.68 0,19.91 14.48,36.39 33.46,39.68 -0.38,2.23 -0.69,4.51 -0.69,6.86 0,22.27 18.09,40.31 40.37,40.31 10.91,0 20.76,-4.35 28.03,-11.4 7.4,8.81 18.34,14.56 30.74,14.56 17.69,0 32.56,-11.49 38,-27.34 4.36,1.61 9,2.67 13.92,2.67 22.27,0 40.31,-18.1 40.31,-40.37 0,-11.2 -4.56,-21.31 -11.94,-28.62 3.73,-6.11 6.02,-13.2 6.02,-20.88 0,-22.27 -18.09,-40.31 -40.36,-40.31 -2.35,0 -4.63,0.25 -6.86,0.64 -3.6,-18.6 -19.94,-32.67 -39.58,-32.67 z"
       style="fill:#ffffff;stroke:#000000;stroke-width:10.85700035;stroke-linejoin:round"
       id="path3422"
       inkscape:connector-curvature="0" />
    <path
       sodipodi:cx="174.30678"
       sodipodi:cy="484.92569"
       transform="matrix(1.5792,0,0,1.5792,170.62,-261.43)"
       d="m 183.84595,484.92569 c 0,5.26834 -4.27083,9.53918 -9.53917,9.53918 -5.26834,0 -9.53918,-4.27084 -9.53918,-9.53918 0,-5.26834 4.27084,-9.53918 9.53918,-9.53918 5.26834,0 9.53917,4.27084 9.53917,9.53918 z"
       sodipodi:type="arc"
       style="fill:#ffffff;stroke:#000000;stroke-width:4.79869986;stroke-linejoin:round"
       sodipodi:ry="9.5391769"
       sodipodi:rx="9.5391769"
       id="path3424" />
    <path
       sodipodi:cx="174.30678"
       sodipodi:cy="484.92569"
       transform="matrix(1.0961,0,0,1.0961,274.91,5.6957)"
       d="m 183.84595,484.92569 c 0,5.26834 -4.27083,9.53918 -9.53917,9.53918 -5.26834,0 -9.53918,-4.27084 -9.53918,-9.53918 0,-5.26834 4.27084,-9.53918 9.53918,-9.53918 5.26834,0 9.53917,4.27084 9.53917,9.53918 z"
       sodipodi:type="arc"
       style="fill:#ffffff;stroke:#000000;stroke-width:5.40280008;stroke-linejoin:round"
       sodipodi:ry="9.5391769"
       sodipodi:rx="9.5391769"
       id="path3426" />
  </g>
  <g
     transform="matrix(0.04852582,0,0,0.04852582,13.07918,-20.938096)"
     inkscape:label="Layer 1"
     id="layer1-8">
    <g
       transform="matrix(1.8411,0,0,1.8411,-1319.7,906.35)"
       id="g27845">
      <path
         inkscape:connector-curvature="0"
         style="fill:#e12d0e"
         sodipodi:nodetypes="cscssccccccccsccccccccscccccssccccsscsccscscccssccccscccccccccsscccccccccscsscccscscsccccsccccccscsscccscccsccscccccccsccccccsscscccccccccccccsccccccccscssccssccccccsscccccssccscccscccscccccccsccccccccccscssscc"
         d="m 788.44,74.45 c -3.0351,-1.5023 -3.6907,-3.0769 -3.9388,-9.4612 l -0.20939,-5.4664 -2.9729,-0.78861 c -5.5962,-1.4845 -4.8058,-1.7847 -7.4319,2.8243 -2.6013,4.5656 -3.9022,5.8969 -6.4252,6.5762 -2.3764,0.63999 -3.3347,0.34094 -8.8241,-2.7533 -5.6445,-3.1813 -7.4115,-4.7547 -8.0992,-7.2114 -0.67113,-2.3969 -0.1557,-4.105 2.698,-8.9479 l 2.2523,-3.822 -2.982,-3.0144 -2.982,-3.0144 -4.0268,2.3249 c -5.0002,2.8867 -6.3999,3.3058 -8.7994,2.634 -2.4988,-0.6997 -3.8029,-2.1226 -6.895,-7.525 -3.1855,-5.566 -3.6864,-7.1082 -3.062,-9.4277 0.67435,-2.5054 2.0161,-3.8099 6.5739,-6.3916 3.7884,-2.1462 4.095,-2.4159 3.8614,-3.3974 -0.1396,-0.5863 -0.60885,-2.4038 -1.0427,-4.0387 l -0.78871,-2.9727 -5.4662,-0.21262 c -6.4128,-0.24912 -7.9881,-0.9099 -9.4705,-3.9721 -0.76348,-1.5763 -0.87945,-2.6158 -0.87945,-7.854 0,-6.3965 0.39194,-8.2028 2.2062,-10.132 1.4523,-1.546 3.5409,-2.0015 8.7102,-1.8996 l 4.7586,0.09396 0.46711,-1.8135 c 0.25772,-0.9973 0.74254,-2.7983 1.0803,-4.0021 0.33825,-1.2038 0.61422,-2.2817 0.61422,-2.3955 0,-0.11382 -1.985,-1.3648 -4.4112,-2.7802 -5.0416,-2.941 -6.2517,-4.3916 -6.3543,-7.6179 -0.0537,-1.5367 0.27382,-2.6488 1.3804,-4.7649 6.2813,-12.01 8.8305,-13.242 17.201,-8.3159 l 4.1771,2.4586 2.9218,-2.8992 c 1.6064,-1.5945 2.9213,-3.0325 2.9213,-3.1955 0,-0.16322 -0.94871,-1.9395 -2.109,-3.9478 -1.1597,-2.0084 -2.3243,-4.3719 -2.5884,-5.2525 -0.66845,-2.232 0.12349,-4.9848 1.9135,-6.6531 1.753,-1.6335 10.332,-6.5097 12.061,-6.8556 3.7353,-0.747 6.2142,1.0478 9.4844,6.8661 1.2429,2.2114 2.451,3.951 2.6845,3.866 0.23087,-0.08483 2.0827,-0.58958 4.1089,-1.1212 l 3.6837,-0.96649 0.1396,-5.6057 c 0.12885,-5.3297 0.19328,-5.6796 1.2821,-7.1037 1.9334,-2.5319 3.2349,-2.8916 10.465,-2.8916 6.6324,0 8.0976,0.2749 9.7712,1.8331 1.949,1.8151 2.2947,3.0913 2.2829,8.44 0,2.7591 0.1557,5.1198 0.35973,5.246 0.20402,0.12617 1.7825,0.59903 3.5065,1.0507 1.7245,0.45154 3.4255,0.93255 3.7809,1.0688 0.47248,0.18148 1.2011,-0.74802 2.7151,-3.4598 2.561,-4.5857 4.1218,-6.2883 6.3881,-6.9672 2.5498,-0.76396 4.0885,-0.31033 9.5145,2.802 5.6751,3.2555 6.4772,3.9342 7.4609,6.3121 l 0.73341,1.774 2.7173,-2.5995 2.7168,-2.5995 -1.2011,-2.4489 c -1.1323,-2.3095 -1.2735,-2.4355 -2.4762,-2.2155 -3.2069,0.58657 -6.8794,0.73331 -7.9441,0.31731 -1.5189,-0.59355 -2.3366,-2.286 -3.3514,-6.9349 -1.3439,-6.159 -0.33825,-7.8013 5.5446,-9.0728 l 3.3482,-0.72338 0.1396,-2.884 0.13959,-2.884 -1.6982,-0.5004 c -3.2596,-0.96069 -5.6977,-2.211 -6.3994,-3.2815 -0.9455,-1.4433 -0.85637,-3.8089 0.27382,-7.2469 1.317,-4.009 1.9307,-5.0719 3.3519,-5.8069 1.6633,-0.86018 3.2252,-0.81186 6.452,0.19973 1.4808,0.46443 2.8193,0.84633 2.9745,0.84933 0.35973,0.0107 2.9025,-4.1056 2.9025,-4.6905 0,-0.23999 -0.83328,-1.336 -1.8513,-2.4355 -2.3742,-2.5629 -2.8198,-3.4537 -2.8198,-5.6363 0,-1.669 0.20939,-1.9798 3.2671,-4.8941 3.7428,-3.5651 4.9803,-4.2166 7.2128,-3.7978 1.1936,0.22389 2.1938,0.94957 4.1192,2.9882 l 2.5428,2.6925 2.5143,-1.2694 c 2.4139,-1.2186 2.5052,-1.3233 2.27,-2.6211 -1.5361,-8.4922 -0.85422,-9.5694 7.0469,-11.134 3.0894,-0.61191 3.921,-0.6444 5.004,-0.19597 1.9667,0.81465 2.8735,2.2953 3.6671,5.9864 l 0.72053,3.3548 h 2.866 2.8655 l 0.94442,-2.8665 c 1.8888,-5.7366 3.5178,-6.6938 8.7886,-5.1647 7.8211,2.2691 8.8144,3.7508 6.8504,10.217 -0.49396,1.6253 -0.82791,3.0094 -0.74308,3.0759 1.0786,0.84525 4.212,2.8052 4.4773,2.8007 0.19329,-0.004 1.5565,-1.0332 3.0335,-2.2888 2.9938,-2.5452 4.5578,-3.0689 6.6082,-2.2124 1.4835,0.61986 6.7886,6.3924 7.2708,7.9111 0.64267,2.026 -0.18255,3.8121 -2.9782,6.4619 l -2.7103,2.5667 1.2569,2.4894 c 0.691,1.3692 1.3927,2.4894 1.5592,2.4894 0.16645,0 1.7922,-0.32 3.6128,-0.71129 3.0872,-0.66341 3.4094,-0.66378 4.7903,-0.005 2.0462,0.97562 2.8622,2.534 3.7847,7.2275 1.2139,6.173 0.45637,7.4038 -5.4367,8.8592 l -3.6687,0.9056 v 2.8623 2.8624 l 2.9047,0.88224 c 3.5076,1.0653 4.9401,2.1188 5.5999,4.1175 0.42952,1.3089 0.34362,1.9898 -0.65181,5.1956 -1.4883,4.7781 -2.0784,5.8719 -3.5919,6.6546 -1.6907,0.87419 -3.0432,0.81175 -6.4934,-0.29906 l -2.9299,-0.94367 -0.73879,0.97964 c -0.40804,0.53879 -1.084,1.6202 -1.5055,2.4032 l -0.7667,1.4236 2.1884,2.5164 c 3.7095,4.2647 3.7251,6.2814 0.0752,9.7974 -3.957,3.8129 -4.9637,4.4434 -7.0952,4.4434 -1.7879,0 -2.0912,-0.18147 -4.7983,-2.8679 l -2.8902,-2.8679 -2.1519,1.0904 c -1.1833,0.59972 -2.2706,1.2828 -2.4155,1.5179 -0.14496,0.23463 0.0591,1.9344 0.45637,3.7762 0.69261,3.2227 0.68939,3.4105 -0.0859,4.9951 -0.98147,2.0098 -2.0794,2.5594 -7.208,3.607 -6.1809,1.2626 -7.4555,0.41127 -8.9003,-5.9398 l -0.68885,-3.0279 h -2.5138 c -1.3831,0 -2.6577,-0.04832 -2.8327,-0.10631 -0.17718,-0.05852 -0.81771,1.3271 -1.4276,3.0788 -1.4207,4.0804 -2.7758,5.5226 -5.1812,5.5153 -1.6311,-0.0047 -7.4652,-1.6086 -9.1677,-2.52 -0.52617,-0.28188 -0.34362,0.35328 0.68187,2.3959 1.5554,3.0906 1.7106,4.5072 0.74576,6.8161 -0.93314,2.2331 -1.6048,2.8483 -5.6869,5.2089 -2.0016,1.1574 -3.862,2.2519 -4.1336,2.4325 -0.3651,0.24107 -0.18255,1.4012 0.66845,4.36 l 1.1635,4.0318 3.5779,0.03758 c 6.3903,0.0655 7.0238,0.15033 8.4944,1.1415 0.78818,0.531 1.8674,1.6104 2.3989,2.3985 0.90362,1.341 0.96536,1.8653 0.96536,8.1784 0,7.7013 -0.31141,8.9139 -2.7866,10.803 -1.5517,1.1848 -1.782,1.2282 -7.2203,1.3621 l -5.6176,0.13798 -0.87946,3.5064 c -0.48321,1.9285 -0.97931,3.7772 -1.1017,4.1084 -0.15033,0.41288 0.87516,1.203 3.2676,2.5132 6.0584,3.3174 7.9183,5.6819 7.4163,9.4274 -0.26845,1.9995 -5.3304,11.069 -7.1113,12.741 -0.67167,0.63087 -2.0338,1.3657 -3.026,1.6329 -2.3398,0.63006 -3.9038,0.16322 -8.6587,-2.5821 -2.008,-1.1599 -3.7847,-2.1088 -3.9479,-2.1088 -0.16107,0 -1.593,1.3067 -3.178,2.9037 l -2.881,2.9038 2.4682,4.2095 c 2.2754,3.8806 2.4682,4.4111 2.4682,6.7905 0,3.5954 -1.0287,4.804 -7.0174,8.2481 -5.797,3.3334 -7.3164,3.9152 -9.3041,3.5626 -2.852,-0.50577 -4.1406,-1.6998 -6.8638,-6.3586 -1.4217,-2.4329 -2.7114,-4.4145 -2.8649,-4.4036 -0.1557,0.01074 -1.9039,0.45852 -3.8894,0.99489 l -3.6096,0.97508 -0.24161,5.269 c -0.31141,6.7643 -1.0942,8.3975 -4.7479,9.9242 -1.1592,0.48429 -3.1307,0.65304 -7.6289,0.65282 -5.2982,-2.68e-4 -6.292,-0.11275 -7.8592,-0.88858 z m 17.507,-39.026 c 14.748,-3.8996 25.973,-16.279 28.305,-31.217 0.65448,-4.1929 0.20939,-12.02 -0.90201,-15.925 -3.0942,-10.858 -10.974,-20.101 -21.019,-24.656 -8.3795,-3.7996 -19.199,-4.437 -27.557,-1.6234 -18.378,6.1867 -29.614,25.116 -25.808,43.478 1.7557,8.4703 4.5895,13.744 10.632,19.787 5.9065,5.9065 11.211,8.8076 19.362,10.589 4.8966,1.0704 11.985,0.88976 16.987,-0.43275 z m 57.295,-82.762 c 0.37047,-1.022 0.67221,-2.0938 0.67221,-2.3817 0,-0.28778 -1.0035,-1.1898 -2.2298,-2.0041 l -2.2303,-1.4806 -2.9428,2.4822 c -2.5412,2.1434 -3.1801,2.4821 -4.6824,2.4821 -0.9573,0 -2.1632,-0.29637 -2.6802,-0.65852 -1.7251,-1.2086 -5.3981,-5.32 -6.0832,-6.8101 l -0.67704,-1.472 -2.4504,4.3116 -2.451,4.3117 2.9712,2.9713 2.9712,2.9715 4.2034,-2.3801 c 4.5804,-2.5933 6.1095,-3.0709 8.4348,-2.6345 1.8266,0.34255 4.5514,2.6847 5.3471,4.5959 l 0.57288,1.3756 0.28993,-1.911 c 0.16107,-1.051 0.59382,-2.7472 0.96321,-3.7693 z m 27.807,-14.72 c 5.7707,-1.3604 12.119,-5.8925 15.601,-11.139 2.5788,-3.8849 4.0601,-8.8085 4.1079,-13.652 0.0537,-4.822 -0.55785,-7.6534 -2.5251,-11.813 -3.0056,-6.3557 -8.7065,-11.312 -15.563,-13.529 -6.8719,-2.2223 -15.542,-1.2412 -21.324,2.4128 -7.9693,5.0361 -12.528,13.111 -12.528,22.191 0,4.8289 0.58254,7.4143 2.6464,11.744 3.1425,6.5918 9.5972,11.855 16.889,13.77 3.0781,0.80842 9.3019,0.81653 12.696,0.01611 z"
         id="path26132-9-2" />
      <path
         sodipodi:cx="-517.94641"
         sodipodi:cy="694.17859"
         transform="matrix(4.6041,0,0,4.8464,3181.4,-3365.8)"
         d="m -514.37498,694.17859 c 0,1.87382 -1.59899,3.39286 -3.57143,3.39286 -1.97245,0 -3.57143,-1.51904 -3.57143,-3.39286 0,-1.87382 1.59898,-3.39286 3.57143,-3.39286 1.97244,0 3.57143,1.51904 3.57143,3.39286 z"
         sodipodi:type="arc"
         style="fill:#2f2f2f;stroke-width:0"
         sodipodi:ry="3.3928571"
         sodipodi:rx="3.5714285"
         id="path26152-9-5" />
      <path
         sodipodi:cx="-517.94641"
         sodipodi:cy="694.17859"
         transform="matrix(3.0913,0,0,3.254,2485.9,-2346.3)"
         d="m -514.37498,694.17859 c 0,1.87382 -1.59899,3.39286 -3.57143,3.39286 -1.97245,0 -3.57143,-1.51904 -3.57143,-3.39286 0,-1.87382 1.59898,-3.39286 3.57143,-3.39286 1.97244,0 3.57143,1.51904 3.57143,3.39286 z"
         sodipodi:type="arc"
         style="fill:#2f2f2f;stroke-width:0"
         sodipodi:ry="3.3928571"
         sodipodi:rx="3.5714285"
         id="path26152-1-6-78" />
    </g>
  </g>
</svg>
