<?xml version="1.0" encoding="UTF-8" standalone="no"?>
<!DOCTYPE svg PUBLIC "-//W3C//DTD SVG 1.1//EN"
 "http://www.w3.org/Graphics/SVG/1.1/DTD/svg11.dtd">
<!-- Generated by graphviz version 2.26.3 (20100126.1600)
 -->
<!-- Title: G Pages: 1 -->
<svg width="358pt" height="436pt"
 viewBox="0.00 0.00 358.00 436.00" xmlns="http://www.w3.org/2000/svg" xmlns:xlink="http://www.w3.org/1999/xlink">
<g id="graph1" class="graph" transform="scale(1 1) rotate(0) translate(4 432)">
<title>G</title>
<polygon fill="white" stroke="white" points="-4,5 -4,-432 355,-432 355,5 -4,5"/>
<!-- 3076989324 -->
<g id="node1" class="node"><title>3076989324</title>
<polygon fill="none" stroke="black" points="91.5,-349 91.5,-427 166.5,-427 166.5,-349 91.5,-349"/>
<text text-anchor="middle" x="104" y="-410.4" font-family="Times Roman,serif" font-size="14.00"> </text>
<polyline fill="none" stroke="black" points="91.5,-401 116.5,-401 "/>
<text text-anchor="middle" x="104" y="-384.4" font-family="Times Roman,serif" font-size="14.00"> </text>
<polyline fill="none" stroke="black" points="91.5,-375 116.5,-375 "/>
<text text-anchor="middle" x="104" y="-358.4" font-family="Times Roman,serif" font-size="14.00">o</text>
<polyline fill="none" stroke="black" points="116.5,-349 116.5,-427 "/>
<text text-anchor="middle" x="129" y="-410.4" font-family="Times Roman,serif" font-size="14.00">o</text>
<polyline fill="none" stroke="black" points="116.5,-401 141.5,-401 "/>
<text text-anchor="middle" x="129" y="-384.4" font-family="Times Roman,serif" font-size="14.00">x</text>
<polyline fill="none" stroke="black" points="116.5,-375 141.5,-375 "/>
<text text-anchor="middle" x="129" y="-358.4" font-family="Times Roman,serif" font-size="14.00">x</text>
<polyline fill="none" stroke="black" points="141.5,-349 141.5,-427 "/>
<text text-anchor="middle" x="154" y="-410.4" font-family="Times Roman,serif" font-size="14.00">o</text>
<polyline fill="none" stroke="black" points="141.5,-401 166.5,-401 "/>
<text text-anchor="middle" x="154" y="-384.4" font-family="Times Roman,serif" font-size="14.00">x</text>
<polyline fill="none" stroke="black" points="141.5,-375 166.5,-375 "/>
<text text-anchor="middle" x="154" y="-358.4" font-family="Times Roman,serif" font-size="14.00"> </text>
</g>
<!-- 3076989772 -->
<g id="node2" class="node"><title>3076989772</title>
<polygon fill="none" stroke="green" points="-0.5,-233 -0.5,-311 74.5,-311 74.5,-233 -0.5,-233"/>
<text text-anchor="middle" x="12" y="-294.4" font-family="Times Roman,serif" font-size="14.00">o</text>
<polyline fill="none" stroke="green" points="-0.5,-285 24.5,-285 "/>
<text text-anchor="middle" x="12" y="-268.4" font-family="Times Roman,serif" font-size="14.00"> </text>
<polyline fill="none" stroke="green" points="-0.5,-259 24.5,-259 "/>
<text text-anchor="middle" x="12" y="-242.4" font-family="Times Roman,serif" font-size="14.00">o</text>
<polyline fill="none" stroke="green" points="24.5,-233 24.5,-311 "/>
<text text-anchor="middle" x="37" y="-294.4" font-family="Times Roman,serif" font-size="14.00">o</text>
<polyline fill="none" stroke="green" points="24.5,-285 49.5,-285 "/>
<text text-anchor="middle" x="37" y="-268.4" font-family="Times Roman,serif" font-size="14.00">x</text>
<polyline fill="none" stroke="green" points="24.5,-259 49.5,-259 "/>
<text text-anchor="middle" x="37" y="-242.4" font-family="Times Roman,serif" font-size="14.00">x</text>
<polyline fill="none" stroke="green" points="49.5,-233 49.5,-311 "/>
<text text-anchor="middle" x="62" y="-294.4" font-family="Times Roman,serif" font-size="14.00">o</text>
<polyline fill="none" stroke="green" points="49.5,-285 74.5,-285 "/>
<text text-anchor="middle" x="62" y="-268.4" font-family="Times Roman,serif" font-size="14.00">x</text>
<polyline fill="none" stroke="green" points="49.5,-259 74.5,-259 "/>
<text text-anchor="middle" x="62" y="-242.4" font-family="Times Roman,serif" font-size="14.00"> </text>
</g>
<!-- 3076989324&#45;&gt;3076989772 -->
<g id="edge2" class="edge"><title>3076989324&#45;&gt;3076989772</title>
<path fill="none" stroke="black" d="M97.853,-348.728C90.3595,-339.279 82.2769,-329.088 74.5267,-319.316"/>
<polygon fill="black" stroke="black" points="77.0712,-316.892 68.1149,-311.232 71.5867,-321.242 77.0712,-316.892"/>
</g>
<!-- 3076989868 -->
<g id="node3" class="node"><title>3076989868</title>
<polygon fill="none" stroke="black" points="91.5,-233 91.5,-311 166.5,-311 166.5,-233 91.5,-233"/>
<text text-anchor="middle" x="104" y="-294.4" font-family="Times Roman,serif" font-size="14.00"> </text>
<polyline fill="none" stroke="black" points="91.5,-285 116.5,-285 "/>
<text text-anchor="middle" x="104" y="-268.4" font-family="Times Roman,serif" font-size="14.00">o</text>
<polyline fill="none" stroke="black" points="91.5,-259 116.5,-259 "/>
<text text-anchor="middle" x="104" y="-242.4" font-family="Times Roman,serif" font-size="14.00">o</text>
<polyline fill="none" stroke="black" points="116.5,-233 116.5,-311 "/>
<text text-anchor="middle" x="129" y="-294.4" font-family="Times Roman,serif" font-size="14.00">o</text>
<polyline fill="none" stroke="black" points="116.5,-285 141.5,-285 "/>
<text text-anchor="middle" x="129" y="-268.4" font-family="Times Roman,serif" font-size="14.00">x</text>
<polyline fill="none" stroke="black" points="116.5,-259 141.5,-259 "/>
<text text-anchor="middle" x="129" y="-242.4" font-family="Times Roman,serif" font-size="14.00">x</text>
<polyline fill="none" stroke="black" points="141.5,-233 141.5,-311 "/>
<text text-anchor="middle" x="154" y="-294.4" font-family="Times Roman,serif" font-size="14.00">o</text>
<polyline fill="none" stroke="black" points="141.5,-285 166.5,-285 "/>
<text text-anchor="middle" x="154" y="-268.4" font-family="Times Roman,serif" font-size="14.00">x</text>
<polyline fill="none" stroke="black" points="141.5,-259 166.5,-259 "/>
<text text-anchor="middle" x="154" y="-242.4" font-family="Times Roman,serif" font-size="14.00"> </text>
</g>
<!-- 3076989324&#45;&gt;3076989868 -->
<g id="edge4" class="edge"><title>3076989324&#45;&gt;3076989868</title>
<path fill="none" stroke="black" d="M129,-348.728C129,-339.941 129,-330.511 129,-321.374"/>
<polygon fill="black" stroke="black" points="132.5,-321.232 129,-311.232 125.5,-321.232 132.5,-321.232"/>
</g>
<!-- 3076990252 -->
<g id="node8" class="node"><title>3076990252</title>
<polygon fill="none" stroke="black" points="183.5,-233 183.5,-311 258.5,-311 258.5,-233 183.5,-233"/>
<text text-anchor="middle" x="196" y="-294.4" font-family="Times Roman,serif" font-size="14.00"> </text>
<polyline fill="none" stroke="black" points="183.5,-285 208.5,-285 "/>
<text text-anchor="middle" x="196" y="-268.4" font-family="Times Roman,serif" font-size="14.00"> </text>
<polyline fill="none" stroke="black" points="183.5,-259 208.5,-259 "/>
<text text-anchor="middle" x="196" y="-242.4" font-family="Times Roman,serif" font-size="14.00">o</text>
<polyline fill="none" stroke="black" points="208.5,-233 208.5,-311 "/>
<text text-anchor="middle" x="221" y="-294.4" font-family="Times Roman,serif" font-size="14.00">o</text>
<polyline fill="none" stroke="black" points="208.5,-285 233.5,-285 "/>
<text text-anchor="middle" x="221" y="-268.4" font-family="Times Roman,serif" font-size="14.00">x</text>
<polyline fill="none" stroke="black" points="208.5,-259 233.5,-259 "/>
<text text-anchor="middle" x="221" y="-242.4" font-family="Times Roman,serif" font-size="14.00">x</text>
<polyline fill="none" stroke="black" points="233.5,-233 233.5,-311 "/>
<text text-anchor="middle" x="246" y="-294.4" font-family="Times Roman,serif" font-size="14.00">o</text>
<polyline fill="none" stroke="black" points="233.5,-285 258.5,-285 "/>
<text text-anchor="middle" x="246" y="-268.4" font-family="Times Roman,serif" font-size="14.00">x</text>
<polyline fill="none" stroke="black" points="233.5,-259 258.5,-259 "/>
<text text-anchor="middle" x="246" y="-242.4" font-family="Times Roman,serif" font-size="14.00">o</text>
</g>
<!-- 3076989324&#45;&gt;3076990252 -->
<g id="edge6" class="edge"><title>3076989324&#45;&gt;3076990252</title>
<path fill="none" stroke="black" d="M160.147,-348.728C167.641,-339.279 175.723,-329.088 183.473,-319.316"/>
<polygon fill="black" stroke="black" points="186.413,-321.242 189.885,-311.232 180.929,-316.892 186.413,-321.242"/>
</g>
<!-- 3076989964 -->
<g id="node4" class="node"><title>3076989964</title>
<polygon fill="none" stroke="black" points="-0.5,-117 -0.5,-195 74.5,-195 74.5,-117 -0.5,-117"/>
<text text-anchor="middle" x="12" y="-178.4" font-family="Times Roman,serif" font-size="14.00">x</text>
<polyline fill="none" stroke="black" points="-0.5,-169 24.5,-169 "/>
<text text-anchor="middle" x="12" y="-152.4" font-family="Times Roman,serif" font-size="14.00">o</text>
<polyline fill="none" stroke="black" points="-0.5,-143 24.5,-143 "/>
<text text-anchor="middle" x="12" y="-126.4" font-family="Times Roman,serif" font-size="14.00">o</text>
<polyline fill="none" stroke="black" points="24.5,-117 24.5,-195 "/>
<text text-anchor="middle" x="37" y="-178.4" font-family="Times Roman,serif" font-size="14.00">o</text>
<polyline fill="none" stroke="black" points="24.5,-169 49.5,-169 "/>
<text text-anchor="middle" x="37" y="-152.4" font-family="Times Roman,serif" font-size="14.00">x</text>
<polyline fill="none" stroke="black" points="24.5,-143 49.5,-143 "/>
<text text-anchor="middle" x="37" y="-126.4" font-family="Times Roman,serif" font-size="14.00">x</text>
<polyline fill="none" stroke="black" points="49.5,-117 49.5,-195 "/>
<text text-anchor="middle" x="62" y="-178.4" font-family="Times Roman,serif" font-size="14.00">o</text>
<polyline fill="none" stroke="black" points="49.5,-169 74.5,-169 "/>
<text text-anchor="middle" x="62" y="-152.4" font-family="Times Roman,serif" font-size="14.00">x</text>
<polyline fill="none" stroke="black" points="49.5,-143 74.5,-143 "/>
<text text-anchor="middle" x="62" y="-126.4" font-family="Times Roman,serif" font-size="14.00"> </text>
</g>
<!-- 3076989868&#45;&gt;3076989964 -->
<g id="edge8" class="edge"><title>3076989868&#45;&gt;3076989964</title>
<path fill="none" stroke="black" d="M97.853,-232.728C90.3595,-223.279 82.2769,-213.088 74.5267,-203.316"/>
<polygon fill="black" stroke="black" points="77.0712,-200.892 68.1149,-195.232 71.5867,-205.242 77.0712,-200.892"/>
</g>
<!-- 3076990220 -->
<g id="node6" class="node"><title>3076990220</title>
<polygon fill="none" stroke="black" points="91.5,-117 91.5,-195 166.5,-195 166.5,-117 91.5,-117"/>
<text text-anchor="middle" x="104" y="-178.4" font-family="Times Roman,serif" font-size="14.00"> </text>
<polyline fill="none" stroke="black" points="91.5,-169 116.5,-169 "/>
<text text-anchor="middle" x="104" y="-152.4" font-family="Times Roman,serif" font-size="14.00">o</text>
<polyline fill="none" stroke="black" points="91.5,-143 116.5,-143 "/>
<text text-anchor="middle" x="104" y="-126.4" font-family="Times Roman,serif" font-size="14.00">o</text>
<polyline fill="none" stroke="black" points="116.5,-117 116.5,-195 "/>
<text text-anchor="middle" x="129" y="-178.4" font-family="Times Roman,serif" font-size="14.00">o</text>
<polyline fill="none" stroke="black" points="116.5,-169 141.5,-169 "/>
<text text-anchor="middle" x="129" y="-152.4" font-family="Times Roman,serif" font-size="14.00">x</text>
<polyline fill="none" stroke="black" points="116.5,-143 141.5,-143 "/>
<text text-anchor="middle" x="129" y="-126.4" font-family="Times Roman,serif" font-size="14.00">x</text>
<polyline fill="none" stroke="black" points="141.5,-117 141.5,-195 "/>
<text text-anchor="middle" x="154" y="-178.4" font-family="Times Roman,serif" font-size="14.00">o</text>
<polyline fill="none" stroke="black" points="141.5,-169 166.5,-169 "/>
<text text-anchor="middle" x="154" y="-152.4" font-family="Times Roman,serif" font-size="14.00">x</text>
<polyline fill="none" stroke="black" points="141.5,-143 166.5,-143 "/>
<text text-anchor="middle" x="154" y="-126.4" font-family="Times Roman,serif" font-size="14.00">x</text>
</g>
<!-- 3076989868&#45;&gt;3076990220 -->
<g id="edge10" class="edge"><title>3076989868&#45;&gt;3076990220</title>
<path fill="none" stroke="black" d="M129,-232.728C129,-223.941 129,-214.511 129,-205.374"/>
<polygon fill="black" stroke="black" points="132.5,-205.232 129,-195.232 125.5,-205.232 132.5,-205.232"/>
</g>
<!-- 3076990124 -->
<g id="node5" class="node"><title>3076990124</title>
<polygon fill="none" stroke="black" points="-0.5,-1 -0.5,-79 74.5,-79 74.5,-1 -0.5,-1"/>
<text text-anchor="middle" x="12" y="-62.4" font-family="Times Roman,serif" font-size="14.00">x</text>
<polyline fill="none" stroke="black" points="-0.5,-53 24.5,-53 "/>
<text text-anchor="middle" x="12" y="-36.4" font-family="Times Roman,serif" font-size="14.00">o</text>
<polyline fill="none" stroke="black" points="-0.5,-27 24.5,-27 "/>
<text text-anchor="middle" x="12" y="-10.4" font-family="Times Roman,serif" font-size="14.00">o</text>
<polyline fill="none" stroke="black" points="24.5,-1 24.5,-79 "/>
<text text-anchor="middle" x="37" y="-62.4" font-family="Times Roman,serif" font-size="14.00">o</text>
<polyline fill="none" stroke="black" points="24.5,-53 49.5,-53 "/>
<text text-anchor="middle" x="37" y="-36.4" font-family="Times Roman,serif" font-size="14.00">x</text>
<polyline fill="none" stroke="black" points="24.5,-27 49.5,-27 "/>
<text text-anchor="middle" x="37" y="-10.4" font-family="Times Roman,serif" font-size="14.00">x</text>
<polyline fill="none" stroke="black" points="49.5,-1 49.5,-79 "/>
<text text-anchor="middle" x="62" y="-62.4" font-family="Times Roman,serif" font-size="14.00">o</text>
<polyline fill="none" stroke="black" points="49.5,-53 74.5,-53 "/>
<text text-anchor="middle" x="62" y="-36.4" font-family="Times Roman,serif" font-size="14.00">x</text>
<polyline fill="none" stroke="black" points="49.5,-27 74.5,-27 "/>
<text text-anchor="middle" x="62" y="-10.4" font-family="Times Roman,serif" font-size="14.00">o</text>
</g>
<!-- 3076989964&#45;&gt;3076990124 -->
<g id="edge12" class="edge"><title>3076989964&#45;&gt;3076990124</title>
<path fill="none" stroke="black" d="M37,-116.728C37,-107.941 37,-98.5114 37,-89.3741"/>
<polygon fill="black" stroke="black" points="40.5001,-89.2318 37,-79.2319 33.5001,-89.2319 40.5001,-89.2318"/>
</g>
<!-- 3076990316 -->
<g id="node7" class="node"><title>3076990316</title>
<polygon fill="none" stroke="green" points="91.5,-1 91.5,-79 166.5,-79 166.5,-1 91.5,-1"/>
<text text-anchor="middle" x="104" y="-62.4" font-family="Times Roman,serif" font-size="14.00">o</text>
<polyline fill="none" stroke="green" points="91.5,-53 116.5,-53 "/>
<text text-anchor="middle" x="104" y="-36.4" font-family="Times Roman,serif" font-size="14.00">o</text>
<polyline fill="none" stroke="green" points="91.5,-27 116.5,-27 "/>
<text text-anchor="middle" x="104" y="-10.4" font-family="Times Roman,serif" font-size="14.00">o</text>
<polyline fill="none" stroke="green" points="116.5,-1 116.5,-79 "/>
<text text-anchor="middle" x="129" y="-62.4" font-family="Times Roman,serif" font-size="14.00">o</text>
<polyline fill="none" stroke="green" points="116.5,-53 141.5,-53 "/>
<text text-anchor="middle" x="129" y="-36.4" font-family="Times Roman,serif" font-size="14.00">x</text>
<polyline fill="none" stroke="green" points="116.5,-27 141.5,-27 "/>
<text text-anchor="middle" x="129" y="-10.4" font-family="Times Roman,serif" font-size="14.00">x</text>
<polyline fill="none" stroke="green" points="141.5,-1 141.5,-79 "/>
<text text-anchor="middle" x="154" y="-62.4" font-family="Times Roman,serif" font-size="14.00">o</text>
<polyline fill="none" stroke="green" points="141.5,-53 166.5,-53 "/>
<text text-anchor="middle" x="154" y="-36.4" font-family="Times Roman,serif" font-size="14.00">x</text>
<polyline fill="none" stroke="green" points="141.5,-27 166.5,-27 "/>
<text text-anchor="middle" x="154" y="-10.4" font-family="Times Roman,serif" font-size="14.00">x</text>
</g>
<!-- 3076990220&#45;&gt;3076990316 -->
<g id="edge14" class="edge"><title>3076990220&#45;&gt;3076990316</title>
<path fill="none" stroke="black" d="M129,-116.728C129,-107.941 129,-98.5114 129,-89.3741"/>
<polygon fill="black" stroke="black" points="132.5,-89.2318 129,-79.2319 125.5,-89.2319 132.5,-89.2318"/>
</g>
<!-- 3076990412 -->
<g id="node9" class="node"><title>3076990412</title>
<polygon fill="none" stroke="black" points="183.5,-117 183.5,-195 258.5,-195 258.5,-117 183.5,-117"/>
<text text-anchor="middle" x="196" y="-178.4" font-family="Times Roman,serif" font-size="14.00">x</text>
<polyline fill="none" stroke="black" points="183.5,-169 208.5,-169 "/>
<text text-anchor="middle" x="196" y="-152.4" font-family="Times Roman,serif" font-size="14.00"> </text>
<polyline fill="none" stroke="black" points="183.5,-143 208.5,-143 "/>
<text text-anchor="middle" x="196" y="-126.4" font-family="Times Roman,serif" font-size="14.00">o</text>
<polyline fill="none" stroke="black" points="208.5,-117 208.5,-195 "/>
<text text-anchor="middle" x="221" y="-178.4" font-family="Times Roman,serif" font-size="14.00">o</text>
<polyline fill="none" stroke="black" points="208.5,-169 233.5,-169 "/>
<text text-anchor="middle" x="221" y="-152.4" font-family="Times Roman,serif" font-size="14.00">x</text>
<polyline fill="none" stroke="black" points="208.5,-143 233.5,-143 "/>
<text text-anchor="middle" x="221" y="-126.4" font-family="Times Roman,serif" font-size="14.00">x</text>
<polyline fill="none" stroke="black" points="233.5,-117 233.5,-195 "/>
<text text-anchor="middle" x="246" y="-178.4" font-family="Times Roman,serif" font-size="14.00">o</text>
<polyline fill="none" stroke="black" points="233.5,-169 258.5,-169 "/>
<text text-anchor="middle" x="246" y="-152.4" font-family="Times Roman,serif" font-size="14.00">x</text>
<polyline fill="none" stroke="black" points="233.5,-143 258.5,-143 "/>
<text text-anchor="middle" x="246" y="-126.4" font-family="Times Roman,serif" font-size="14.00">o</text>
</g>
<!-- 3076990252&#45;&gt;3076990412 -->
<g id="edge16" class="edge"><title>3076990252&#45;&gt;3076990412</title>
<path fill="none" stroke="black" d="M221,-232.728C221,-223.941 221,-214.511 221,-205.374"/>
<polygon fill="black" stroke="black" points="224.5,-205.232 221,-195.232 217.5,-205.232 224.5,-205.232"/>
</g>
<!-- 3076990540 -->
<g id="node11" class="node"><title>3076990540</title>
<polygon fill="none" stroke="red" points="275.5,-117 275.5,-195 350.5,-195 350.5,-117 275.5,-117"/>
<text text-anchor="middle" x="288" y="-178.4" font-family="Times Roman,serif" font-size="14.00"> </text>
<polyline fill="none" stroke="red" points="275.5,-169 300.5,-169 "/>
<text text-anchor="middle" x="288" y="-152.4" font-family="Times Roman,serif" font-size="14.00">x</text>
<polyline fill="none" stroke="red" points="275.5,-143 300.5,-143 "/>
<text text-anchor="middle" x="288" y="-126.4" font-family="Times Roman,serif" font-size="14.00">o</text>
<polyline fill="none" stroke="red" points="300.5,-117 300.5,-195 "/>
<text text-anchor="middle" x="313" y="-178.4" font-family="Times Roman,serif" font-size="14.00">o</text>
<polyline fill="none" stroke="red" points="300.5,-169 325.5,-169 "/>
<text text-anchor="middle" x="313" y="-152.4" font-family="Times Roman,serif" font-size="14.00">x</text>
<polyline fill="none" stroke="red" points="300.5,-143 325.5,-143 "/>
<text text-anchor="middle" x="313" y="-126.4" font-family="Times Roman,serif" font-size="14.00">x</text>
<polyline fill="none" stroke="red" points="325.5,-117 325.5,-195 "/>
<text text-anchor="middle" x="338" y="-178.4" font-family="Times Roman,serif" font-size="14.00">o</text>
<polyline fill="none" stroke="red" points="325.5,-169 350.5,-169 "/>
<text text-anchor="middle" x="338" y="-152.4" font-family="Times Roman,serif" font-size="14.00">x</text>
<polyline fill="none" stroke="red" points="325.5,-143 350.5,-143 "/>
<text text-anchor="middle" x="338" y="-126.4" font-family="Times Roman,serif" font-size="14.00">o</text>
</g>
<!-- 3076990252&#45;&gt;3076990540 -->
<g id="edge18" class="edge"><title>3076990252&#45;&gt;3076990540</title>
<path fill="none" stroke="black" d="M252.147,-232.728C259.641,-223.279 267.723,-213.088 275.473,-203.316"/>
<polygon fill="black" stroke="black" points="278.413,-205.242 281.885,-195.232 272.929,-200.892 278.413,-205.242"/>
</g>
<!-- 3076990508 -->
<g id="node10" class="node"><title>3076990508</title>
<polygon fill="none" stroke="black" points="183.5,-1 183.5,-79 258.5,-79 258.5,-1 183.5,-1"/>
<text text-anchor="middle" x="196" y="-62.4" font-family="Times Roman,serif" font-size="14.00">x</text>
<polyline fill="none" stroke="black" points="183.5,-53 208.5,-53 "/>
<text text-anchor="middle" x="196" y="-36.4" font-family="Times Roman,serif" font-size="14.00">o</text>
<polyline fill="none" stroke="black" points="183.5,-27 208.5,-27 "/>
<text text-anchor="middle" x="196" y="-10.4" font-family="Times Roman,serif" font-size="14.00">o</text>
<polyline fill="none" stroke="black" points="208.5,-1 208.5,-79 "/>
<text text-anchor="middle" x="221" y="-62.4" font-family="Times Roman,serif" font-size="14.00">o</text>
<polyline fill="none" stroke="black" points="208.5,-53 233.5,-53 "/>
<text text-anchor="middle" x="221" y="-36.4" font-family="Times Roman,serif" font-size="14.00">x</text>
<polyline fill="none" stroke="black" points="208.5,-27 233.5,-27 "/>
<text text-anchor="middle" x="221" y="-10.4" font-family="Times Roman,serif" font-size="14.00">x</text>
<polyline fill="none" stroke="black" points="233.5,-1 233.5,-79 "/>
<text text-anchor="middle" x="246" y="-62.4" font-family="Times Roman,serif" font-size="14.00">o</text>
<polyline fill="none" stroke="black" points="233.5,-53 258.5,-53 "/>
<text text-anchor="middle" x="246" y="-36.4" font-family="Times Roman,serif" font-size="14.00">x</text>
<polyline fill="none" stroke="black" points="233.5,-27 258.5,-27 "/>
<text text-anchor="middle" x="246" y="-10.4" font-family="Times Roman,serif" font-size="14.00">o</text>
</g>
<!-- 3076990412&#45;&gt;3076990508 -->
<g id="edge20" class="edge"><title>3076990412&#45;&gt;3076990508</title>
<path fill="none" stroke="black" d="M221,-116.728C221,-107.941 221,-98.5114 221,-89.3741"/>
<polygon fill="black" stroke="black" points="224.5,-89.2318 221,-79.2319 217.5,-89.2319 224.5,-89.2318"/>
</g>
</g>
</svg>
